<?xml version="1.0" standalone="no"?>
<!DOCTYPE svg PUBLIC "-//W3C//DTD SVG 20010904//EN"
 "http://www.w3.org/TR/2001/REC-SVG-20010904/DTD/svg10.dtd">
<svg version="1.0" xmlns="http://www.w3.org/2000/svg"
 width="256.000000pt" height="256.000000pt" viewBox="0 0 256.000000 256.000000"
 preserveAspectRatio="xMidYMid meet">
<metadata>
Created by potrace 1.16, written by Peter Selinger 2001-2019
</metadata>
<g transform="translate(0.000000,256.000000) scale(0.100000,-0.100000)"
fill="#000000" stroke="none">
<path d="M1200 2500 c0 -17 -7 -20 -40 -20 -33 0 -40 -3 -40 -20 0 -18 -7 -20
-60 -20 -53 0 -60 -2 -60 -20 0 -17 -7 -20 -40 -20 -33 0 -40 -3 -40 -20 0
-13 -7 -20 -20 -20 -13 0 -20 -7 -20 -20 0 -13 -7 -20 -20 -20 -13 0 -20 -7
-20 -20 0 -13 -7 -20 -20 -20 -13 0 -20 -7 -20 -20 0 -17 -7 -20 -40 -20 -33
0 -40 -3 -40 -20 0 -13 -7 -20 -20 -20 -13 0 -20 -7 -20 -20 0 -13 -7 -20 -20
-20 -13 0 -20 -7 -20 -20 0 -13 -7 -20 -20 -20 -17 0 -20 -7 -20 -40 0 -33 -3
-40 -20 -40 -18 0 -20 -7 -20 -60 0 -53 -2 -60 -20 -60 -19 0 -20 -7 -20 -160
0 -153 1 -160 20 -160 18 0 20 -7 20 -60 0 -53 2 -60 20 -60 17 0 20 -7 20
-40 0 -33 3 -40 20 -40 18 0 20 -7 20 -60 0 -53 2 -60 19 -60 16 0 20 -8 23
-42 2 -34 7 -42 20 -40 10 1 23 -6 30 -18 8 -12 23 -20 40 -20 21 0 28 -5 28
-20 0 -19 7 -20 126 -20 121 0 126 1 121 20 -3 11 -1 20 4 20 5 0 9 -9 9 -20
0 -11 5 -20 10 -20 6 0 10 5 10 10 0 6 5 10 11 10 5 0 7 -4 4 -10 -11 -18 7
-10 26 12 16 18 19 18 19 4 0 -13 5 -11 25 10 14 15 25 22 25 16 0 -6 -8 -15
-17 -20 -19 -11 -35 -113 -21 -135 4 -6 8 14 8 46 0 33 4 57 11 57 5 0 7 5 4
10 -3 6 -2 10 4 10 5 0 11 -5 13 -10 2 -6 4 24 6 66 3 86 6 95 30 88 14 -5 15
-4 2 5 -13 9 -13 11 0 11 13 0 13 1 0 10 -9 6 -17 5 -21 -2 -4 -6 -6 0 -6 14
2 19 6 24 20 20 13 -3 15 -7 7 -12 -7 -4 -2 -7 13 -7 14 0 28 6 31 13 6 16
-10 19 -17 4 -3 -6 -4 -5 -3 2 4 18 31 16 31 -1 0 -8 5 -16 12 -18 7 -3 10 3
6 15 -4 16 0 20 21 18 14 0 26 -5 26 -10 0 -4 -9 -6 -21 -3 -15 4 -19 2 -15
-10 3 -8 6 -41 6 -74 0 -52 2 -59 20 -59 13 0 20 -7 20 -20 0 -15 7 -20 26
-20 25 0 26 -2 20 -37 -5 -30 -4 -34 5 -20 10 16 20 18 97 12 48 -4 89 -9 92
-12 3 -3 -16 -4 -42 -2 -27 3 -48 0 -48 -5 0 -4 -7 -2 -17 5 -14 12 -16 12
-12 0 4 -10 28 -15 93 -16 77 -3 87 -1 83 14 -3 12 3 16 29 16 17 0 30 -3 27
-8 -2 -4 -12 -6 -20 -5 -9 2 -18 -3 -20 -9 -6 -16 29 -17 44 -2 6 6 19 9 29 6
15 -4 13 -5 -6 -7 -23 -1 -23 -2 -5 -10 17 -7 17 -9 3 -9 -10 -1 -18 -5 -18
-11 0 -5 6 -7 14 -4 8 3 17 1 20 -4 3 -5 -2 -9 -12 -8 -13 1 -18 -8 -20 -41
-3 -35 -7 -43 -23 -43 -12 0 -19 -7 -19 -19 0 -11 -8 -21 -17 -23 -24 -4 -28
-68 -4 -69 12 0 11 -2 -4 -9 -18 -8 -18 -9 5 -10 19 -2 21 -3 6 -7 -10 -3 -23
0 -29 6 -16 16 -37 14 -37 -4 0 -8 6 -12 14 -9 8 3 17 1 21 -5 3 -6 0 -9 -8
-5 -22 8 -26 -6 -29 -83 l-3 -70 -22 21 c-13 12 -23 25 -23 29 0 5 7 1 16 -8
9 -9 19 -13 23 -9 3 4 0 9 -7 11 -6 3 -10 9 -7 13 3 5 -7 9 -22 10 -67 2 -72
4 -61 18 9 10 13 11 19 0 6 -10 9 -8 9 6 0 13 -5 17 -20 13 -18 -5 -20 0 -20
59 0 57 -2 64 -20 64 -17 0 -20 7 -20 40 0 33 -3 40 -20 40 -13 0 -20 7 -20
20 0 17 -7 20 -40 20 -33 0 -40 -3 -40 -20 0 -19 -7 -20 -100 -20 -80 0 -102
-3 -106 -15 -4 -8 -11 -12 -16 -9 -7 4 -4 10 6 16 9 5 16 22 16 41 0 24 3 28
10 17 8 -13 10 -13 10 1 0 17 -19 29 -46 29 -11 0 -14 -13 -13 -56 2 -46 6
-58 21 -62 14 -3 18 -14 18 -56 0 -36 3 -47 10 -36 8 13 10 13 10 -2 0 -9 -6
-18 -12 -21 -7 -3 -4 -5 7 -6 51 -3 63 -6 58 -14 -3 -5 -11 -6 -19 -3 -8 3
-14 1 -14 -4 0 -6 8 -10 18 -11 14 0 14 -2 -3 -9 -18 -8 -18 -9 5 -10 18 -2
20 -4 7 -7 -10 -3 -23 0 -30 5 -8 7 -33 7 -67 2 l-55 -8 45 -2 c25 -1 50 -2
57 -1 6 1 14 -2 16 -6 3 -5 -25 -9 -61 -10 -108 -2 -113 -3 -107 -12 3 -5 -1
-11 -7 -14 -7 -2 -10 -7 -7 -11 4 -4 14 0 23 9 9 9 16 13 16 8 0 -4 -11 -18
-24 -30 l-23 -22 3 34 c2 34 -16 52 -38 38 -7 -4 -8 -1 -4 6 5 7 14 10 22 7 8
-3 14 1 14 9 0 18 -21 20 -37 4 -6 -6 -19 -9 -29 -6 -15 4 -13 5 6 7 23 1 23
2 5 10 -15 7 -16 9 -4 9 12 1 16 10 15 34 -1 25 -6 33 -24 35 -22 3 -30 -12
-12 -23 6 -3 10 -1 10 5 0 6 5 8 11 4 8 -4 7 -9 -2 -15 -12 -8 -11 -11 1 -19
8 -5 10 -10 4 -10 -7 0 -19 12 -29 26 -9 14 -25 34 -36 45 -17 17 -19 18 -19
2 0 -15 -2 -15 -9 -4 -6 10 -3 19 11 31 24 19 17 40 -14 40 -13 0 -18 5 -15
14 4 11 1 13 -11 9 -16 -6 -16 -5 1 14 25 29 21 42 -14 41 -20 -1 -26 -4 -17
-9 9 -6 6 -9 -10 -9 -16 0 -23 -5 -21 -17 1 -10 1 -42 0 -70 -1 -46 -4 -53
-21 -53 -19 0 -20 7 -20 95 l0 96 22 -21 c13 -12 24 -16 26 -10 2 5 10 10 19
10 18 0 12 22 -8 28 -11 3 -11 2 1 -7 12 -8 11 -10 -5 -9 -18 2 -20 9 -19 62
1 37 -3 64 -10 68 -7 5 -4 8 7 8 21 0 18 21 -3 28 -8 3 -10 0 -5 -8 5 -8 4
-11 -3 -6 -7 4 -10 -16 -11 -60 0 -37 -3 -69 -6 -72 -3 -3 -5 13 -5 36 0 35
-3 42 -20 42 -13 0 -20 7 -20 20 0 13 7 20 19 20 19 0 35 23 24 34 -15 14 -43
5 -43 -14 0 -13 -7 -20 -20 -20 -13 0 -20 -7 -20 -20 0 -13 7 -20 20 -20 19 0
20 -7 20 -140 0 -133 1 -140 20 -140 13 0 20 -7 20 -20 0 -13 7 -20 20 -20 17
0 20 -7 20 -40 0 -33 3 -40 20 -40 18 0 20 -7 20 -80 0 -73 2 -80 20 -80 17 0
20 -7 20 -40 0 -33 3 -40 20 -40 19 0 20 -7 20 -100 0 -93 -1 -100 -20 -100
-13 0 -20 -7 -20 -20 0 -13 -7 -20 -20 -20 -13 0 -20 -7 -20 -20 0 -18 26 -27
63 -21 4 0 7 -4 7 -10 0 -7 -12 -8 -32 -4 -22 4 -28 3 -19 -3 8 -6 9 -12 3
-16 -6 -3 -13 3 -17 14 -4 11 -15 20 -27 20 -16 0 -19 -5 -16 -22 4 -23 3 -23
-79 -20 -78 3 -83 2 -83 -17 0 -18 -6 -21 -40 -21 -33 0 -40 -3 -40 -20 0 -19
-7 -20 -100 -20 -93 0 -100 -1 -100 -20 0 -13 -7 -20 -20 -20 -13 0 -20 -7
-20 -20 0 -19 7 -20 240 -20 l239 0 4 73 3 72 2 -72 2 -73 675 0 c668 0 675 0
675 20 0 17 -7 20 -40 20 -33 0 -40 3 -40 20 0 13 -7 20 -20 20 -13 0 -20 7
-20 20 0 17 -7 20 -40 20 -33 0 -40 3 -40 20 0 17 -7 20 -40 20 -33 0 -40 3
-40 20 0 17 -7 20 -40 20 l-40 0 0 40 c0 33 -3 40 -20 40 -18 0 -20 7 -20 60
0 53 2 60 20 60 18 0 20 7 20 60 0 53 2 60 20 60 25 0 28 37 3 42 -15 3 -15 4
0 17 15 12 17 11 17 -3 0 -9 8 -16 20 -16 18 0 20 7 20 60 0 55 2 60 21 60 21
0 22 3 17 87 -3 49 -3 76 -1 61 3 -20 10 -28 24 -28 16 0 19 7 19 40 0 33 3
40 20 40 19 0 20 7 20 180 0 173 -1 180 -20 180 -18 0 -20 7 -20 60 0 53 2 60
20 60 18 0 20 7 20 60 0 53 2 60 20 60 17 0 20 7 20 40 0 33 3 40 20 40 17 0
20 7 20 40 0 33 3 40 20 40 19 0 20 7 20 160 0 153 -1 160 -20 160 -18 0 -20
7 -20 80 0 73 -2 80 -20 80 -13 0 -20 7 -20 20 0 13 -7 20 -20 20 -13 0 -20 7
-20 20 0 13 -7 20 -20 20 -13 0 -20 7 -20 20 0 13 -7 20 -20 20 -13 0 -20 7
-20 20 0 18 -7 20 -60 20 -53 0 -60 2 -60 20 0 13 -7 20 -20 20 -13 0 -20 7
-20 20 0 13 -7 20 -20 20 -13 0 -20 7 -20 20 0 17 -7 20 -40 20 -33 0 -40 3
-40 20 0 17 -7 20 -40 20 -33 0 -40 3 -40 20 0 18 -7 20 -60 20 -53 0 -60 2
-60 20 0 18 -7 20 -80 20 -73 0 -80 -2 -80 -20z m-200 -200 c0 -18 7 -20 80
-20 l80 0 0 -40 c0 -33 -3 -40 -20 -40 -13 0 -20 -7 -20 -20 0 -13 -7 -20 -20
-20 -13 0 -20 7 -20 20 0 18 -7 20 -60 20 l-60 0 0 -40 c0 -33 3 -40 20 -40
13 0 20 7 20 20 0 13 7 20 20 20 19 0 20 -7 20 -100 0 -93 -1 -100 -20 -100
-13 0 -20 -7 -20 -20 0 -13 -7 -20 -20 -20 -17 0 -20 7 -20 40 0 33 3 40 20
40 17 0 20 7 20 40 0 33 -3 40 -20 40 -13 0 -20 7 -20 20 0 13 -7 20 -20 20
-13 0 -20 -7 -20 -20 0 -13 -7 -20 -20 -20 -13 0 -20 -7 -20 -20 0 -17 -7 -20
-40 -20 l-40 0 0 60 c0 53 2 60 20 60 13 0 20 7 20 20 0 13 7 20 20 20 13 0
20 7 20 20 0 13 7 20 20 20 17 0 20 7 20 40 l0 40 40 0 c33 0 40 -3 40 -20z
m321 -582 c2 -74 2 -73 38 -73 22 0 36 6 39 15 4 13 3 13 -10 2 -13 -10 -17
-10 -21 0 -4 10 -7 10 -15 -1 -6 -8 -12 -9 -16 -3 -3 5 1 12 9 16 19 7 246 -1
254 -10 3 -3 -15 -5 -41 -3 -27 3 -48 0 -48 -5 0 -4 -7 -2 -17 5 -14 12 -16
12 -11 -1 4 -12 18 -14 61 -12 56 4 57 3 57 -22 0 -20 5 -26 23 -27 49 -3 68
-7 75 -14 4 -5 -1 -5 -10 -2 -10 4 -18 2 -18 -5 0 -6 -6 -5 -17 3 -14 12 -16
12 -11 -1 2 -8 12 -15 21 -14 10 0 35 1 56 2 l39 2 -1 59 c-1 33 0 58 3 56 3
-2 10 3 17 10 10 11 10 15 0 18 -9 4 -9 6 0 6 17 1 29 -22 14 -27 -9 -3 -10
-7 -2 -11 6 -4 11 -31 12 -60 2 -43 6 -55 21 -59 15 -4 18 -15 18 -83 0 -72
-2 -79 -20 -79 -14 0 -20 7 -21 23 -1 12 -2 29 -3 37 -1 12 -25 16 -136 18
-74 2 -173 0 -220 -4 -77 -7 -81 -9 -40 -14 41 -5 37 -7 -43 -14 -51 -5 -119
-4 -165 1 -67 9 -71 11 -32 13 l45 3 -50 7 c-27 5 -110 9 -182 9 -127 1 -133
0 -133 -19 0 -17 -7 -20 -45 -20 -31 0 -43 -4 -40 -12 3 -7 1 -26 -4 -43 -9
-29 -9 -29 -10 13 -1 23 -5 42 -11 42 -19 0 -10 38 10 43 11 3 20 11 20 17 0
10 -3 10 -14 1 -10 -9 -15 -8 -19 3 -3 7 0 13 6 13 51 -1 67 4 67 23 0 19 7
20 100 20 93 0 100 1 100 20 0 17 7 20 40 20 33 0 40 3 40 20 0 17 7 20 40 20
33 0 40 3 40 20 0 17 7 20 40 20 33 0 40 3 40 20 0 13 7 20 20 20 13 0 20 7
20 20 0 13 7 20 20 20 17 0 20 -7 21 -42z m-41 -1097 c0 -17 -8 -20 -57 -23
-39 -2 -58 -8 -61 -18 -4 -12 -3 -13 10 -2 13 10 17 10 21 -1 4 -12 -4 -15
-58 -18 -11 -1 -14 -3 -7 -6 6 -3 12 -11 12 -19 0 -9 11 -14 29 -14 20 0 30
-6 34 -20 5 -18 13 -20 75 -19 38 1 80 -2 93 -5 21 -6 22 -6 7 7 -11 9 -14 18
-7 28 7 11 9 10 9 -6 1 -18 1 -19 11 -2 5 9 15 17 22 17 8 0 8 -3 -1 -9 -7 -4
-15 -17 -16 -27 -2 -10 -11 -18 -20 -18 -9 1 -16 -4 -16 -12 0 -17 22 -18 37
-3 6 6 19 9 29 6 15 -4 13 -5 -6 -7 -23 -1 -23 -2 -5 -10 17 -7 17 -9 3 -9
-10 -1 -18 -5 -18 -11 0 -5 6 -7 13 -4 8 3 20 -3 28 -12 12 -16 12 -17 -1 -9
-13 8 -64 8 -170 1 -17 -1 -25 -7 -24 -19 2 -14 -7 -17 -46 -17 -39 0 -48 3
-46 17 1 12 -8 17 -31 19 -18 1 -33 -3 -33 -9 0 -6 -6 -3 -13 8 -8 10 -18 15
-24 12 -5 -4 -24 10 -41 29 -25 28 -32 32 -32 17 0 -15 -2 -15 -10 -3 -15 25
12 31 34 8 l20 -21 16 38 c10 23 19 34 23 28 4 -6 2 -14 -3 -16 -6 -3 -5 -4 2
-3 21 4 21 27 -1 33 -30 8 -31 78 -1 86 11 3 20 11 20 17 0 10 -3 10 -14 1
-10 -9 -15 -8 -19 2 -4 11 18 14 114 16 113 2 119 1 119 -18z"/>
</g>
</svg>
